<svg id="Lager_1" data-name="Lager 1" xmlns="http://www.w3.org/2000/svg" viewBox="0 0 430 74"><defs><style>.cls-1{fill:#efb643;}.cls-2{font-size:55.44px;fill:#31702a;font-family:MyriadPro-Bold, Myriad Pro;font-weight:700;letter-spacing:0.01em;}.cls-3{letter-spacing:0.01em;}.cls-4{letter-spacing:0.01em;}.cls-5{letter-spacing:0.01em;}.cls-6{letter-spacing:0.01em;}.cls-7{letter-spacing:0.01em;}.cls-8{letter-spacing:0.01em;}</style></defs><polygon class="cls-1" points="10.74 29.98 5.2 18.59 18.17 18.66 10.74 29.98"/><polygon class="cls-1" points="14.28 48.77 2 45.66 10.42 35.8 14.28 48.77"/><polygon class="cls-1" points="30.47 59.34 19.78 66.13 18.39 53.24 30.47 59.34"/><polygon class="cls-1" points="24.32 14.87 28.39 2.87 37.56 12.04 24.32 14.87"/><polygon class="cls-1" points="44.34 13.25 56.01 8.31 55.26 21.26 44.34 13.25"/><path class="cls-1" d="M31.68,43.2c0-8.49,7.27-15.37,16.24-15.37a16.9,16.9,0,0,1,6,1.1A19.14,19.14,0,1,0,36,54.8c.4,0,.8,0,1.19,0A15,15,0,0,1,31.68,43.2Z"/><text class="cls-2" transform="translate(35.06 70.9)">S<tspan class="cls-3" x="31.16" y="0">emes</tspan><tspan class="cls-4" x="164.77" y="0">t</tspan><tspan class="cls-5" x="185.67" y="0">e</tspan><tspan class="cls-6" x="215.77" y="0">r</tspan><tspan class="cls-7" x="237.5" y="0">k</tspan><tspan class="cls-8" x="267.61" y="0">ollen</tspan></text></svg>