<svg xmlns="http://www.w3.org/2000/svg" width="698" height="133" viewBox="0 0 698 133">
  <g id="Group_1" data-name="Group 1" transform="translate(-308 -148)">
    <text id="Semesterkollen" transform="translate(308 226)" fill="#bdd537" font-size="70" font-family="PermanentMarker, Permanent Marker"><tspan x="0" y="0">Semesterkollen</tspan></text>
    <text id="_-_När_du_bara_vill_bort" data-name="- När du bara vill bort" transform="translate(348 271)" fill="#bdd537" font-size="30" font-family="PermanentMarker, Permanent Marker"><tspan x="0" y="0">- När du bara vill bort</tspan></text>
    <g id="noun_sun_4341704" transform="translate(879 146)">
      <path id="Path_1" data-name="Path 1" d="M50.643,6A44.643,44.643,0,1,0,95.286,50.643,44.643,44.643,0,0,0,50.643,6Z" transform="translate(13.857 13.857)" fill="rgba(189,213,55,0.88)"/>
      <path id="Path_2" data-name="Path 2" d="M19.464,15.393a4.464,4.464,0,0,0,4.464-4.464V6.464a4.464,4.464,0,0,0-8.929,0v4.464A4.464,4.464,0,0,0,19.464,15.393Z" transform="translate(45.036)" fill="rgba(189,213,55,0.88)"/>
      <path id="Path_3" data-name="Path 3" d="M19.464,27A4.464,4.464,0,0,0,15,31.464v4.464a4.464,4.464,0,0,0,8.929,0V31.464A4.464,4.464,0,0,0,19.464,27Z" transform="translate(45.036 86.607)" fill="rgba(189,213,55,0.88)"/>
      <path id="Path_4" data-name="Path 4" d="M35.929,15H31.464a4.464,4.464,0,1,0,0,8.929h4.464a4.464,4.464,0,0,0,0-8.929Z" transform="translate(86.607 45.036)" fill="rgba(189,213,55,0.88)"/>
      <path id="Path_5" data-name="Path 5" d="M10.929,15H6.464a4.464,4.464,0,0,0,0,8.929h4.464a4.464,4.464,0,0,0,0-8.929Z" transform="translate(0 45.036)" fill="rgba(189,213,55,0.88)"/>
      <path id="Path_6" data-name="Path 6" d="M27.949,7.115l-3.156,3.156a4.464,4.464,0,1,0,6.313,6.313l3.16-3.152a4.467,4.467,0,0,0-6.317-6.317Z" transform="translate(74.43 13.188)" fill="rgba(189,213,55,0.88)"/>
      <path id="Path_7" data-name="Path 7" d="M10.276,24.792,7.115,27.948a4.467,4.467,0,1,0,6.317,6.317l3.156-3.156a4.465,4.465,0,0,0-6.312-6.317Z" transform="translate(13.188 74.431)" fill="rgba(189,213,55,0.88)"/>
      <path id="Path_8" data-name="Path 8" d="M31.106,24.793a4.464,4.464,0,1,0-6.313,6.313l3.157,3.16a4.467,4.467,0,1,0,6.317-6.317Z" transform="translate(74.43 74.43)" fill="rgba(189,213,55,0.88)"/>
      <path id="Path_9" data-name="Path 9" d="M10.276,16.588a4.464,4.464,0,1,0,6.313-6.313l-3.157-3.16a4.467,4.467,0,0,0-6.317,6.317Z" transform="translate(13.188 13.188)" fill="rgba(189,213,55,0.88)"/>
    </g>
  </g>
</svg>
